<svg xmlns="http://www.w3.org/2000/svg" xmlns:xlink="http://www.w3.org/1999/xlink"><defs><clipPath id="b" clipPathUnits="userSpaceOnUse"><path d="M0 512h512V0H0z" data-original="#000000"/></clipPath></defs><symbol id="icon-arrow-right" viewBox="0 0 1560 1560"><path d="M1524 811.8H36c-17.7 0-32-14.3-32-32s14.3-32 32-32h1410.7l-194.2-194.2c-12.5-12.5-12.5-32.8 0-45.3s32.8-12.5 45.3 0l248.9 248.9c9.2 9.2 11.9 22.9 6.9 34.9-5 11.9-16.7 19.7-29.6 19.7z" fill="red" data-original="#000000"/><path d="M1274.8 1061c-8.2 0-16.4-3.1-22.6-9.4-12.5-12.5-12.5-32.8 0-45.3l249.2-249.2c12.5-12.5 32.8-12.5 45.3 0s12.5 32.8 0 45.3l-249.2 249.2c-6.3 6.3-14.5 9.4-22.7 9.4z" fill="red" data-original="#000000"/></symbol><symbol id="icon-check" viewBox="0 0 682.667 682.667"><mask id="a"><rect width="100%" height="100%" fill="#fff" data-original="#ffffff"/></mask><g mask="url(#a)"><path d="M473.365 251.884L294.467 430.782l-85.164-85.162" fill="none" stroke="red" stroke-width="53.333" stroke-linecap="round" stroke-linejoin="round" stroke-miterlimit="10" data-original="#000000"/><g clip-path="url(#b)" transform="matrix(1.33333 0 0 -1.33333 0 682.667)"><path d="M492 256c0-130.339-105.661-236-236-236S20 125.661 20 256s105.661 236 236 236 236-105.661 236-236z" fill="none" stroke="red" stroke-width="40" stroke-linecap="round" stroke-linejoin="round" stroke-miterlimit="10" data-original="#000000"/></g></g></symbol><symbol id="icon-clock" viewBox="0 0 512 512"><path d="M347.216 301.211l-71.387-53.54V138.609c0-10.966-8.864-19.83-19.83-19.83-10.966 0-19.83 8.864-19.83 19.83v118.978c0 6.246 2.935 12.136 7.932 15.864l79.318 59.489a19.713 19.713 0 0011.878 3.966c6.048 0 11.997-2.717 15.884-7.952 6.585-8.746 4.8-21.179-3.965-27.743z" data-original="#000000"/><path d="M256 0C114.833 0 0 114.833 0 256s114.833 256 256 256 256-114.833 256-256S397.167 0 256 0zm0 472.341c-119.275 0-216.341-97.066-216.341-216.341S136.725 39.659 256 39.659c119.295 0 216.341 97.066 216.341 216.341S375.275 472.341 256 472.341z" data-original="#000000"/></symbol><symbol id="icon-close" viewBox="0 0 16 16"><path d="M8 15A7 7 0 118 1a7 7 0 010 14zm0 1A8 8 0 108 0a8 8 0 000 16z"/><path d="M4.646 4.646a.5.5 0 01.708 0L8 7.293l2.646-2.647a.5.5 0 01.708.708L8.707 8l2.647 2.646a.5.5 0 01-.708.708L8 8.707l-2.646 2.647a.5.5 0 01-.708-.708L7.293 8 4.646 5.354a.5.5 0 010-.708z"/></symbol><symbol id="icon-download" viewBox="0 0 32 32"><path d="M.5 9.9a.5.5 0 01.5.5v2.5a1 1 0 001 1h12a1 1 0 001-1v-2.5a.5.5 0 011 0v2.5a2 2 0 01-2 2H2a2 2 0 01-2-2v-2.5a.5.5 0 01.5-.5z"/><path d="M7.646 11.854a.5.5 0 00.708 0l3-3a.5.5 0 00-.708-.708L8.5 10.293V1.5a.5.5 0 00-1 0v8.793L5.354 8.146a.5.5 0 10-.708.708l3 3z"/></symbol><symbol id="icon-instagram" viewBox="0 0 24 24"><path d="M12.004 5.838a6.157 6.157 0 00-6.158 6.158 6.157 6.157 0 006.158 6.158 6.157 6.157 0 006.158-6.158 6.157 6.157 0 00-6.158-6.158zm0 10.155a3.996 3.996 0 113.997-3.997 3.995 3.995 0 01-3.997 3.997z" fill="#FFF" data-original="#000000"/><path d="M16.948.076c-2.208-.103-7.677-.098-9.887 0-1.942.091-3.655.56-5.036 1.941C-.283 4.325.012 7.435.012 11.996c0 4.668-.26 7.706 2.013 9.979 2.317 2.316 5.472 2.013 9.979 2.013 4.624 0 6.22.003 7.855-.63 2.223-.863 3.901-2.85 4.065-6.419.104-2.209.098-7.677 0-9.887-.198-4.213-2.459-6.768-6.976-6.976zm3.495 20.372c-1.513 1.513-3.612 1.378-8.468 1.378-5 0-7.005.074-8.468-1.393-1.685-1.677-1.38-4.37-1.38-8.453 0-5.525-.567-9.504 4.978-9.788 1.274-.045 1.649-.06 4.856-.06l.045.03c5.329 0 9.51-.558 9.761 4.986.057 1.265.07 1.645.07 4.847-.001 4.942.093 6.959-1.394 8.453z" fill="#FFF" data-original="#000000"/><circle cx="18.406" cy="5.595" r="1.439" fill="#FFF" data-original="#000000"/></symbol><symbol id="icon-loupe" viewBox="0 0 512 512"><g data-name="33 Folder" fill="red"><path d="M195.49 391A195.49 195.49 0 0157.25 57.25c76.2-76.21 200.19-76.21 276.4 0s76.2 200.19 0 276.4A195.23 195.23 0 01195.49 391zm0-340.9A145.47 145.47 0 00115 316.65a143.69 143.69 0 0025.9 13.67 145.28 145.28 0 00157.4-32c56.71-56.71 56.71-149 0-205.69a145 145 0 00-102.85-42.56z" data-original="#000000"/><path d="M487 512a24.93 24.93 0 01-17.68-7.32l-171-171a25 25 0 0135.36-35.36l171 171A25 25 0 01487 512z" data-original="#000000"/></g></symbol><symbol id="icon-plus" viewBox="0 0 16 16"><g fill="red"><path fill-rule="evenodd" d="M8 2a.5.5 0 01.5.5v5h5a.5.5 0 010 1h-5v5a.5.5 0 01-1 0v-5h-5a.5.5 0 010-1h5v-5A.5.5 0 018 2z"/></g></symbol><symbol id="icon-star" viewBox="0 0 511.991 511"><path d="M510.652 185.883a27.177 27.177 0 00-23.402-18.688l-147.797-13.418-58.41-136.75C276.73 6.98 266.918.497 255.996.497s-20.738 6.483-25.023 16.53l-58.41 136.75-147.82 13.418c-10.837 1-20.013 8.34-23.403 18.688a27.25 27.25 0 007.937 28.926L121 312.773 88.059 457.86c-2.41 10.668 1.73 21.7 10.582 28.098a27.087 27.087 0 0015.957 5.184 27.14 27.14 0 0013.953-3.86l127.445-76.203 127.422 76.203a27.197 27.197 0 0029.934-1.324c8.851-6.398 12.992-17.43 10.582-28.098l-32.942-145.086 111.723-97.964a27.246 27.246 0 007.937-28.926zM258.45 409.605" fill="#FFF" data-original="#000000"/></symbol><symbol id="icon-telegram" viewBox="0 0 24 24"><path d="M9.417 15.181l-.397 5.584c.568 0 .814-.244 1.109-.537l2.663-2.545 5.518 4.041c1.012.564 1.725.267 1.998-.931L23.93 3.821l.001-.001c.321-1.496-.541-2.081-1.527-1.714l-21.29 8.151c-1.453.564-1.431 1.374-.247 1.741l5.443 1.693L18.953 5.78c.595-.394 1.136-.176.691.218z" fill="#FFF" data-original="#000000"/></symbol><symbol id="icon-vkontakte" viewBox="0 0 24 24"><path d="M19.915 13.028c-.388-.49-.277-.708 0-1.146.005-.005 3.208-4.431 3.538-5.932l.002-.001c.164-.547 0-.949-.793-.949h-2.624c-.668 0-.976.345-1.141.731 0 0-1.336 3.198-3.226 5.271-.61.599-.892.791-1.225.791-.164 0-.419-.192-.419-.739V5.949c0-.656-.187-.949-.74-.949H9.161c-.419 0-.668.306-.668.591 0 .622.945.765 1.043 2.515v3.797c0 .832-.151.985-.486.985-.892 0-3.057-3.211-4.34-6.886-.259-.713-.512-1.001-1.185-1.001H.9c-.749 0-.9.345-.9.731 0 .682.892 4.073 4.148 8.553C6.318 17.343 9.374 19 12.154 19c1.671 0 1.875-.368 1.875-1.001 0-2.922-.151-3.198.686-3.198.388 0 1.056.192 2.616 1.667C19.114 18.217 19.407 19 20.405 19h2.624c.748 0 1.127-.368.909-1.094-.499-1.527-3.871-4.668-4.023-4.878z" fill="#FFF" data-original="#000000"/></symbol><symbol id="icon-youtube" viewBox="0 0 24 24"><path d="M23.469 5.929l.03.196a3.043 3.043 0 00-2.068-2.112l-.021-.005c-1.871-.508-9.4-.508-9.4-.508s-7.51-.01-9.4.508A3.044 3.044 0 00.527 6.104l-.005.021c-.699 3.651-.704 8.038.031 11.947l-.031-.198a3.043 3.043 0 002.068 2.112l.021.005c1.869.509 9.4.509 9.4.509s7.509 0 9.4-.509a3.043 3.043 0 002.084-2.096l.005-.021c.318-1.698.5-3.652.5-5.648l-.001-.221.001-.23c0-1.997-.182-3.951-.531-5.846zM9.608 15.651V8.358l6.266 3.652z" fill="#FFF" data-original="#000000"/></symbol></svg>