<svg viewBox="0 0 512 512">
  <g>
      <g data-name="33 Folder">
        <path d="M195.49 391A195.49 195.49 0 0 1 57.25 57.25c76.2-76.21 200.19-76.21 276.4 0s76.2 200.19 0 276.4A195.23 195.23 0 0 1 195.49 391zm0-340.9A145.47 145.47 0 0 0 115 316.65a143.69 143.69 0 0 0 25.9 13.67 145.28 145.28 0 0 0 157.4-32c56.71-56.71 56.71-149 0-205.69a145 145 0 0 0-102.85-42.56z"
                fill="#FF0000" data-original="#000000" class=""></path>
        <path d="M487 512a24.93 24.93 0 0 1-17.68-7.32l-171-171a25 25 0 0 1 35.36-35.36l171 171A25 25 0 0 1 487 512z"
                fill="#FF0000" data-original="#000000" class=""></path>
      </g>
  </g>
</svg>
